<!DOCTYPE svg PUBLIC "-//W3C//DTD SVG 1.1//EN" "http://www.w3.org/Graphics/SVG/1.1/DTD/svg11.dtd">
<!-- Uploaded to: SVG Repo, www.svgrepo.com, Transformed by: SVG Repo Mixer Tools -->
<svg version="1.1" id="Layer_1" xmlns="http://www.w3.org/2000/svg" xmlns:xlink="http://www.w3.org/1999/xlink" viewBox="0 0 512 512" xml:space="preserve" width="180px" height="180px" fill="#000000">
<g id="SVGRepo_bgCarrier" stroke-width="0"/>
<g id="SVGRepo_tracerCarrier" stroke-linecap="round" stroke-linejoin="round"/>
<g id="SVGRepo_iconCarrier"> <circle style="fill:#E1E5EA;" cx="256" cy="256" r="256"/> <path d="M64,353.176V120.672c0-4.128,3.528-7.504,7.832-7.504H440.16c4.304,0,7.832,3.376,7.832,7.504v232.496H64V353.176z"/> <path style="fill:#636363;" d="M448,353.176v32c0,4.4-3.528,8-7.832,8H71.832c-4.304,0-7.832-3.6-7.832-8v-32H448L448,353.176z"/> <polygon style="fill:#C9C9C9;" points="200,449.176 312,449.176 304,393.176 208,393.176 "/> <polygon style="fill:#AAAAAA;" points="304,393.176 208,393.176 203.016,428.08 305.864,406.224 "/> <rect x="172" y="449.2" style="fill:#636363;" width="168" height="8"/> <polygon style="fill:#939393;" points="208,393.176 304,393.176 304.544,396.96 205.512,410.624 "/> <g> <rect x="110.84" y="244.944" style="fill:#E1E5EA;" width="86.384" height="74.92"/> <rect x="212.808" y="244.944" style="fill:#E1E5EA;" width="86.384" height="74.92"/> <rect x="314.8" y="244.944" style="fill:#E1E5EA;" width="86.384" height="74.92"/> </g> <rect x="110.84" y="147.016" style="fill:#DB2B42;" width="290.32" height="74.92"/> </g>
</svg>